<svg width="37" height="37" viewBox="0 0 37 37" fill="none" xmlns="http://www.w3.org/2000/svg">
<path d="M25.8879 9H11.1101C9.94415 9 8.99898 9.94518 8.99898 11.1111V25.8889C8.99898 27.0548 9.94415 28 11.1101 28H25.8879C27.0538 28 27.999 27.0548 27.999 25.8889V11.1111C27.999 9.94518 27.0538 9 25.8879 9Z" stroke="#1DA1F2" stroke-width="2" stroke-linecap="round" stroke-linejoin="round"/>
<path d="M17.7271 21.1618C17.5121 21.4372 17.214 21.6457 16.8329 21.7874C16.4519 21.9291 16.0191 22 15.5345 22C15.0364 22 14.5954 21.889 14.2116 21.6671C13.8278 21.4452 13.5311 21.1283 13.3215 20.7166C13.1147 20.3021 13.0071 19.8195 12.999 19.2687V18.8115C12.999 17.9291 13.214 17.2406 13.6441 16.746C14.0742 16.2487 14.6744 16 15.4447 16C16.1062 16 16.6315 16.1604 17.0208 16.4813C17.41 16.8021 17.6441 17.2647 17.723 17.869H16.7104C16.5961 17.1658 16.181 16.8142 15.4651 16.8142C15.0024 16.8142 14.6499 16.9786 14.4076 17.3075C14.1681 17.6337 14.0442 18.1136 14.0361 18.7473V19.1965C14.0361 19.8275 14.1708 20.3182 14.4403 20.6684C14.7125 21.016 15.0895 21.1898 15.5713 21.1898C16.0994 21.1898 16.475 21.0722 16.6982 20.8369V19.6939H15.4733V18.9238H17.7271V21.1618Z" fill="#1DA1F2"/>
<path d="M19.9524 21.9198H18.9234V16.0802H19.9524V21.9198Z" fill="#1DA1F2"/>
<path d="M24.6478 19.4452H22.2552V21.9198H21.2222V16.0802H24.999V16.8984H22.2552V18.635H24.6478V19.4452Z" fill="#1DA1F2"/>
<path d="M17.7271 21.1618C17.5121 21.4372 17.214 21.6457 16.8329 21.7874C16.4519 21.9291 16.0191 22 15.5345 22C15.0364 22 14.5954 21.889 14.2116 21.6671C13.8278 21.4452 13.5311 21.1283 13.3215 20.7166C13.1147 20.3021 13.0071 19.8195 12.999 19.2687V18.8115C12.999 17.9291 13.214 17.2406 13.6441 16.746C14.0742 16.2487 14.6744 16 15.4447 16C16.1062 16 16.6315 16.1604 17.0208 16.4813C17.41 16.8021 17.6441 17.2647 17.723 17.869H16.7104C16.5961 17.1658 16.181 16.8142 15.4651 16.8142C15.0024 16.8142 14.6499 16.9786 14.4076 17.3075C14.1681 17.6337 14.0442 18.1136 14.0361 18.7473V19.1965C14.0361 19.8275 14.1708 20.3182 14.4403 20.6684C14.7125 21.016 15.0895 21.1898 15.5713 21.1898C16.0994 21.1898 16.475 21.0722 16.6982 20.8369V19.6939H15.4733V18.9238H17.7271V21.1618Z" stroke="#1DA1F2" stroke-width="0.2"/>
<path d="M19.9524 21.9198H18.9234V16.0802H19.9524V21.9198Z" stroke="#1DA1F2" stroke-width="0.2"/>
<path d="M24.6478 19.4452H22.2552V21.9198H21.2222V16.0802H24.999V16.8984H22.2552V18.635H24.6478V19.4452Z" stroke="#1DA1F2" stroke-width="0.2"/>
</svg>
