<svg width="37" height="37" viewBox="0 0 37 37" fill="none" xmlns="http://www.w3.org/2000/svg">
<path d="M25.888 9.00037H11.111C9.94513 9.00037 9 9.94549 9 11.1114V25.8883C9 27.0542 9.94513 27.9993 11.111 27.9993H25.888C27.0538 27.9993 27.999 27.0542 27.999 25.8883V11.1114C27.999 9.94549 27.0538 9.00037 25.888 9.00037Z" stroke="#1DA1F2" stroke-width="2" stroke-linecap="round" stroke-linejoin="round"/>
<path d="M14.8059 16.3877C15.6803 16.3877 16.3891 15.6789 16.3891 14.8045C16.3891 13.9301 15.6803 13.2212 14.8059 13.2212C13.9315 13.2212 13.2226 13.9301 13.2226 14.8045C13.2226 15.6789 13.9315 16.3877 14.8059 16.3877Z" stroke="#1DA1F2" stroke-width="2" stroke-linecap="round" stroke-linejoin="round"/>
<path d="M27.9984 21.667L22.7209 16.3895L11.1104 28" stroke="#1DA1F2" stroke-width="2" stroke-linecap="round" stroke-linejoin="round"/>
</svg>
